# xmcd
#
# Track frame offsets:
#	150
#	9350
#	20375
#	33067
#	48950
#	61867
#	78162
#	92242
#	105460
#	117247
#	130475
#	144352
#	158720
#	170832
#	190080
#	202437
#
# Disc length: 3004 seconds
#
# Revision: 0
# Processed by: cddbd v1.5.2PL0 Copyright (c) Steve Scherf et al.
# Submitted via: EasyCDDAExtractor 10.0.3.1
#
DISCID=cd0bba10
DTITLE=Various Artist - Country Hellraisers
DYEAR=1991
DGENRE=Country
TTITLE0=Billy Joe Shaver - I'm Just An Old Chunk Of Coal (But I'm Gonna Be A D
TTITLE0=iamond One Day)
TTITLE1=Billy Joe Shaver - Old Five and Dimers Like Me
TTITLE2=Billy Joe Shaver - Fit To Kill And Going Out In Style
TTITLE3=Billy Joe Shaver - When The Word Was Thunderbird
TTITLE4=Billy Joe Shaver - Amtrak (And Ain't Comin' Back)
TTITLE5=Billy Joe Shaver - Oklahoma Wind
TTITLE6=Billy Joe Shaver - Saturday Night
TTITLE7=Billy Joe Shaver - I Been To Georgia On A Fast Train
TTITLE8=Johnny Paycheck - Take This Job And Shove It
TTITLE9=Johnny Paycheck - She's All I Got
TTITLE10=Johnny Paycheck - Drinkin' And Drivin'
TTITLE11=Johnny Paycheck - I'm The Only Hell (Mamma Ever Raised)
TTITLE12=Johnny Paycheck - Fifteen Beers
TTITLE13=Johnny Paycheck - You Better Move On
TTITLE14=Johnny Paycheck - The Outlaw's Prayer
TTITLE15=Unknown Artist - Bonus Track
EXTD=
EXTT0=
EXTT1=
EXTT2=
EXTT3=
EXTT4=
EXTT5=
EXTT6=
EXTT7=
EXTT8=
EXTT9=
EXTT10=
EXTT11=
EXTT12=
EXTT13=
EXTT14=
EXTT15=
PLAYORDER=
